<svg xmlns="http://www.w3.org/2000/svg" version="1.1" viewBox="0 0 100 100">
        <symbol id="noodle">
            <path d="M95.9,47.1c-0.2-0.3-0.6-0.4-0.9-0.4h-4.8c-2.4-2.1-5.2-4.1-8.3-5.9l14-23.5c0.2-0.3,0.2-0.6,0.1-1s-0.3-0.6-0.6-0.8   l-5.2-2.9c-0.3-0.2-0.6-0.2-1-0.1c-0.3,0.1-0.6,0.3-0.8,0.6L75.8,37.8c-1.3-0.6-2.7-1.2-4.1-1.7l5.9-28.5c0.1-0.3,0-0.7-0.2-1   c-0.2-0.3-0.5-0.5-0.8-0.5l-5.9-1c-0.3-0.1-0.7,0-0.9,0.2c-0.3,0.2-0.5,0.5-0.5,0.8l-4,27.8c-3.9-1.2-8-2.1-12.2-2.7   c-1.6-0.2-3.1-0.4-4.7-0.6c0,0,0,0,0,0c-4-2.3-8.5-3.7-13.3-3.7c-12,0-22.5,8.3-25.4,19.9H5c-0.4,0-0.7,0.2-0.9,0.4   c-0.2,0.3-0.4,0.6-0.3,1c0,0.4,4.3,37.5,28,45.2v1.9c0,2.3,1.9,4.2,4.2,4.2h28c2.3,0,4.2-1.9,4.2-4.2v-1.9   c23.7-7.7,28-44.8,28-45.2C96.3,47.8,96.2,47.4,95.9,47.1z M86.2,46.7h-4.5c-0.8-0.6-1.6-1.1-2.4-1.7l1.2-2   C82.6,44.2,84.5,45.4,86.2,46.7z M90.1,15.5l3,1.7l-4.8,8l-2.5-1.4L90.1,15.5z M84.7,26.1l2.3,1.3l-9.8,16.4   c-0.4-0.2-0.9-0.5-1.3-0.7L84.7,26.1z M74.7,40l-1,1.9c-0.9-0.4-1.9-0.9-2.9-1.3l0.4-2.1C72.4,39,73.5,39.5,74.7,40z M71.5,7.8   l3.4,0.6L73,17.5l-2.8-0.5L71.5,7.8z M69.8,19.5l2.6,0.5l-4.1,19.7c-0.5-0.2-0.9-0.3-1.4-0.5L69.8,19.5z M77.3,46.7h-4.7   c-4-2.2-8.9-4-14-5.1c-0.4-0.8-0.8-1.7-1.3-2.4C64.9,40.7,71.8,43.3,77.3,46.7z M66.8,46.7h-6.4c-0.2-0.8-0.4-1.5-0.7-2.3   C62.2,45.1,64.6,45.8,66.8,46.7z M52.7,33.7c4.2,0.7,8.3,1.6,12.2,2.8l-0.3,2c-3.1-0.9-6.3-1.7-9.6-2.2c-0.8-0.9-1.6-1.8-2.6-2.6   C52.5,33.6,52.6,33.7,52.7,33.7z M35,29.4c10.6,0,20,7.2,22.9,17.4h-2.6c-2.8-8.8-11-14.9-20.2-14.9c-9.3,0-17.5,6.1-20.3,14.9   h-2.6C15,36.6,24.3,29.4,35,29.4z M35,41.9c-3.7,0-7.1,1.8-9.2,4.9h-2.9c2.4-4.5,7-7.4,12.2-7.4c5.1,0,9.8,2.9,12.2,7.4h-2.9   C42.1,43.7,38.7,41.9,35,41.9z M41,46.7H29c1.6-1.5,3.7-2.4,6-2.4C37.3,44.4,39.4,45.2,41,46.7z M35,36.9c-6.5,0-12.4,3.9-14.9,9.9   h-2.7C20,39.4,27.1,34.4,35,34.4c7.9,0,15,5,17.6,12.4h-2.7C47.4,40.8,41.5,36.9,35,36.9z"/><path d="M49.2,19.9c0,2-0.4,4-1.2,5.5c-0.3,0.6,0,1.4,0.6,1.7c0.2,0.1,0.4,0.1,0.5,0.1c0.5,0,0.9-0.3,1.1-0.7   c0.9-1.9,1.4-4.2,1.4-6.6s-0.5-4.7-1.4-6.6c-0.7-1.5-1.2-3.5-1.2-5.5c0-2,0.4-4,1.2-5.5c0.3-0.6,0-1.4-0.6-1.7s-1.4,0-1.7,0.6   c-0.9,1.9-1.4,4.2-1.4,6.6c0,2.4,0.5,4.7,1.4,6.6C48.8,15.9,49.2,17.9,49.2,19.9z"/><path d="M42.6,22.6c0.2,0,0.4,0,0.5-0.1c0.6-0.3,0.9-1.1,0.6-1.7c-0.7-1.5-1.2-3.5-1.2-5.5s0.4-4,1.2-5.5c0.3-0.6,0-1.4-0.6-1.7   c-0.6-0.3-1.4,0-1.7,0.6c-0.9,1.9-1.4,4.2-1.4,6.6s0.5,4.7,1.4,6.6C41.6,22.3,42.1,22.6,42.6,22.6z"/><path d="M56.9,22.8c0.2,0.1,0.4,0.1,0.5,0.1c0.5,0,0.9-0.3,1.1-0.7c0.9-1.9,1.4-4.2,1.4-6.6s-0.5-4.7-1.4-6.6   c-0.3-0.6-1.1-0.9-1.7-0.6c-0.6,0.3-0.9,1.1-0.6,1.7c0.7,1.5,1.2,3.5,1.2,5.5s-0.4,4-1.2,5.5C56,21.8,56.3,22.5,56.9,22.8z"/>
        </symbol>
</svg>